<svg width="79" height="18" viewBox="0 0 79 18" fill="none" xmlns="http://www.w3.org/2000/svg">
<g clip-path="url(#clip0_421_23588)">
<path d="M8.97382 18.0003C3.99197 17.969 -0.0312331 13.9151 0.000198179 8.95327C0.0316294 3.99147 4.10198 -0.0311843 9.08383 0.000120446C14.05 0.0314252 18.0574 4.05408 18.0574 9.00023C18.0574 13.9933 13.9871 18.016 8.97382 18.0003ZM9.0524 15.9029C12.8399 15.8873 15.8887 12.8038 15.8573 9.03153C15.8415 5.25932 12.7456 2.22276 8.9581 2.25406C5.20207 2.26971 2.15324 5.32192 2.16895 9.07849C2.16895 12.8507 5.26493 15.9186 9.0524 15.9029Z" fill="#E6034B"/>
<path d="M9.03667 15.4489C5.48494 15.4332 2.64042 12.5532 2.65613 9.01575C2.68756 5.49397 5.56352 2.64524 9.11525 2.66089C12.6513 2.67654 15.4958 5.54093 15.4958 9.04706C15.4801 12.6001 12.5884 15.4645 9.03667 15.4489ZM8.97381 5.40006C9.47671 5.40006 9.8696 4.9931 9.8696 4.49222C9.8696 3.99134 9.461 3.60003 8.9581 3.60003C8.4552 3.60003 8.06231 4.007 8.06231 4.49222C8.07802 4.9931 8.48663 5.40006 8.97381 5.40006ZM11.6612 6.07311C12.0541 6.07311 12.3684 5.76006 12.3684 5.36875C12.3684 4.97744 12.0541 4.66439 11.6612 4.66439C11.2683 4.66439 10.954 4.97744 10.954 5.36875C10.954 5.74441 11.2683 6.07311 11.6612 6.07311ZM13.2642 7.57574C13.5313 7.57574 13.7514 7.3566 13.7514 7.09051C13.7514 6.82442 13.5313 6.60529 13.2642 6.60529C12.997 6.60529 12.777 6.82442 12.777 7.09051C12.7613 7.3566 12.997 7.57574 13.2642 7.57574ZM13.8771 9.54793C14.0657 9.54793 14.2071 9.39141 14.2071 9.20358C14.2071 9.01575 14.05 8.87488 13.8614 8.87488C13.6728 8.87488 13.5313 9.03141 13.5313 9.20358C13.5313 9.39141 13.6885 9.54793 13.8771 9.54793Z" fill="#E6034B"/>
<path d="M56.3983 8.06251C56.3983 10.1286 56.3983 12.1947 56.3983 14.2608C56.3983 14.48 56.3669 14.6052 56.1154 14.6678C54.811 15.0122 53.4752 15.2156 52.1394 14.9495C50.5049 14.6365 49.4834 13.6191 49.0434 12.0382C48.6348 10.5512 48.7134 9.06426 49.452 7.68685C50.2378 6.24683 51.5422 5.699 53.1452 5.77726C53.7895 5.80856 54.4181 5.99639 54.9839 6.32509C55.2196 6.46596 55.2668 6.40335 55.2668 6.15292C55.2511 4.79116 55.2668 3.41375 55.2511 2.052C55.2511 1.81721 55.2982 1.69199 55.5497 1.67634C55.8325 1.64503 56.194 1.45721 56.3512 1.58243C56.5083 1.70764 56.3983 2.09895 56.3983 2.36504C56.3826 4.25898 56.3826 6.15292 56.3983 8.06251ZM55.2511 10.6765C55.2511 9.70601 55.2511 8.75121 55.2511 7.78076C55.2668 7.62424 55.1882 7.46772 55.031 7.38945C54.591 7.12336 54.1195 6.95119 53.6323 6.84162C51.9665 6.49727 50.6621 7.24858 50.2221 8.78252C49.9863 9.62774 49.9392 10.5199 50.0963 11.3808C50.3321 12.7426 51.2279 13.6974 52.4851 13.9165C53.3338 14.073 54.1667 13.9478 55.0153 13.8069C55.2196 13.7756 55.2511 13.6974 55.2511 13.5252C55.2353 12.6017 55.2511 11.6469 55.2511 10.6765Z" fill="#E6034B"/>
<path d="M44.4073 10.6294C43.4643 10.6294 42.5214 10.6294 41.5785 10.6294C41.3584 10.6294 41.3113 10.692 41.3427 10.8955C41.3899 11.3338 41.4684 11.7564 41.6099 12.179C41.9871 13.2277 42.7414 13.8225 43.8415 13.9477C44.753 14.0573 45.6488 14.0103 46.4974 13.6347C46.7017 13.5408 46.7646 13.5877 46.8118 13.8069C46.9689 14.5738 46.9846 14.5738 46.2146 14.793C45.193 15.0903 44.1244 15.1217 43.1029 14.8712C41.8613 14.5582 40.9498 13.8225 40.5412 12.6173C39.9912 11.052 39.9755 9.47115 40.6827 7.93722C41.4842 6.07458 43.6529 5.22936 45.5231 6.02763C45.7588 6.12154 45.9788 6.24676 46.1831 6.40328C47.0161 7.02938 47.3618 7.92156 47.519 8.90766C47.5818 9.36158 47.5975 9.8155 47.5975 10.2851C47.5975 10.5512 47.5504 10.6451 47.2518 10.6451C46.2774 10.6138 45.3502 10.6294 44.4073 10.6294ZM43.8729 9.65898C44.643 9.65898 45.3974 9.65898 46.1517 9.65898C46.356 9.65898 46.4189 9.59637 46.3874 9.40854C46.356 9.03288 46.2774 8.65722 46.1517 8.29722C45.6488 6.90416 44.2344 6.34067 42.9143 7.02938C41.9242 7.54591 41.4999 8.43809 41.3584 9.50245C41.327 9.70593 41.4684 9.67463 41.5785 9.67463L43.8729 9.65898Z" fill="#E6034B"/>
<path d="M74.8013 10.6295C73.8584 10.6295 72.9155 10.6295 71.9725 10.6295C71.7525 10.6295 71.6896 10.6764 71.7211 10.9112C71.7682 11.3338 71.8625 11.7564 71.9725 12.1634C72.3497 13.2591 73.1198 13.8382 74.2513 13.9634C75.1314 14.0886 76.0429 13.9791 76.8758 13.6347C77.0801 13.5408 77.143 13.5878 77.1744 13.7913C77.3315 14.6678 77.5359 14.4956 76.5929 14.793C75.5871 15.106 74.5027 15.1374 73.4812 14.8713C72.1925 14.5582 71.281 13.7756 70.8724 12.5078C70.3853 11.0208 70.3695 9.51815 70.9982 8.06248C72.1611 5.40158 75.0528 5.29201 76.5458 6.38768C77.3787 6.99812 77.7244 7.89031 77.8816 8.86075C77.9445 9.36163 77.9759 9.86251 77.9602 10.3634C77.9602 10.5669 77.8973 10.6295 77.693 10.6295C76.7186 10.6295 75.76 10.6295 74.8013 10.6295ZM74.2827 9.65903C75.0371 9.65903 75.7914 9.65903 76.5301 9.65903C76.7344 9.65903 76.7815 9.61207 76.7658 9.40859C76.7344 8.98597 76.6401 8.56336 76.4986 8.1564C76.0586 6.99812 74.7699 6.41899 73.6227 6.85725C73.5441 6.88856 73.4655 6.91986 73.3869 6.96682C72.334 7.46769 71.9097 8.40684 71.7368 9.48685C71.7054 9.69033 71.8468 9.64337 71.9568 9.64337L74.2827 9.65903Z" fill="#E6034B"/>
<path d="M31.6305 10.5199C31.6305 9.18946 31.6305 7.85901 31.6305 6.54421C31.6305 6.30942 31.6934 6.23116 31.9134 6.18421C33.1235 5.87116 34.3807 5.74594 35.638 5.8242C37.0995 5.91812 38.121 6.87291 38.3882 8.40684C38.4668 8.89207 38.5139 9.37729 38.5139 9.87817C38.5139 11.4278 38.5139 12.9773 38.5296 14.5269C38.5296 14.7774 38.4668 14.84 38.1996 14.84C37.3824 14.8243 37.3824 14.84 37.3824 14.026C37.3824 12.6486 37.3824 11.2712 37.3824 9.89382C37.3981 9.34598 37.3195 8.79815 37.1781 8.28162C36.9109 7.42074 36.3295 6.95117 35.4337 6.85726C34.6165 6.79465 33.7992 6.84161 32.9978 6.98248C32.7777 7.01378 32.762 7.139 32.762 7.31118C32.762 9.69034 32.7463 12.0851 32.7463 14.4643C32.7463 14.7774 32.6677 14.8556 32.3534 14.8556C31.6148 14.8243 31.6148 14.84 31.6148 14.12L31.6305 10.5199Z" fill="#E6034B"/>
<path d="M61.993 10.5355C61.993 9.20508 61.993 7.85897 61.993 6.52852C61.993 6.32504 62.0402 6.23113 62.2602 6.18417C63.5017 5.85547 64.7747 5.73025 66.0477 5.82417C67.4778 5.93373 68.4836 6.85722 68.7665 8.3755C68.845 8.84507 68.8922 9.31464 68.8922 9.78421C68.8922 11.3808 68.8922 12.9773 68.8922 14.5582C68.8922 14.7773 68.845 14.8556 68.6093 14.8556C67.7764 14.8556 67.7764 14.8712 67.7764 14.026C67.7607 12.5077 67.8235 10.9894 67.7292 9.47117C67.7135 9.04855 67.6507 8.64159 67.5249 8.23463C67.2578 7.40505 66.6763 6.95114 65.8119 6.85722C64.9947 6.79461 64.1618 6.82592 63.3446 6.98244C63.0931 7.0294 63.1088 7.17027 63.1088 7.3581C63.1088 9.73726 63.0931 12.1008 63.1088 14.4799C63.1088 14.7617 63.046 14.8556 62.7474 14.8556C61.993 14.8399 61.993 14.8556 61.993 14.0886V10.5355Z" fill="#E6034B"/>
<path d="M21.8397 9.48692C21.8397 7.95299 21.8397 6.4034 21.8397 4.86947C21.8239 4.29033 21.934 3.7112 22.1383 3.17902C22.4369 2.3964 23.0969 1.81726 23.9141 1.64508C24.8099 1.42595 25.7529 1.45726 26.6486 1.72335C26.8215 1.7703 26.8687 1.84856 26.8215 2.02074C26.7587 2.23987 26.7744 2.53727 26.6329 2.69379C26.4601 2.88162 26.2086 2.64683 25.9886 2.59988C25.5486 2.52162 25.1085 2.50596 24.6685 2.55292C23.6784 2.64683 23.1283 3.24162 23.0026 4.29033C22.9398 4.7599 22.9555 5.22948 22.9398 5.69905C22.924 5.91818 23.0183 5.96514 23.2226 5.96514C24.2284 5.96514 25.2185 5.96514 26.2243 5.96514C26.4601 5.96514 26.5386 6.01209 26.5386 6.26253C26.5229 6.93558 26.5386 6.93558 25.8629 6.93558C24.9985 6.93558 24.1184 6.95124 23.2541 6.93558C23.0026 6.93558 22.9555 6.99819 22.9555 7.23298C22.9712 9.6591 22.9555 12.0852 22.9712 14.5113C22.9712 14.7931 22.9083 14.8713 22.6254 14.8713C21.8554 14.8557 21.8554 14.8713 21.8554 14.1044L21.8397 9.48692Z" fill="#E6034B"/>
<path d="M59.7614 10.3949C59.7614 11.7723 59.7614 13.1341 59.7614 14.4958C59.7614 14.7619 59.6829 14.8402 59.4157 14.8245C58.6299 14.8089 58.6299 14.8245 58.6299 14.0106C58.6299 11.428 58.6299 8.86098 58.6299 6.27833C58.6299 6.01224 58.6613 5.90268 58.9757 5.91833C59.7614 5.94963 59.7614 5.91833 59.7614 6.73225V10.3949Z" fill="#E6034B"/>
<path d="M29.3832 10.3791C29.3832 11.7565 29.3832 13.1339 29.3832 14.5113C29.3832 14.7461 29.3518 14.84 29.0846 14.84C28.2674 14.8243 28.2674 14.84 28.2674 14.0261C28.2674 11.4434 28.2674 8.86078 28.2674 6.26249C28.2674 5.9964 28.3302 5.91814 28.5974 5.93379C29.3832 5.94944 29.3832 5.93379 29.3832 6.71641V10.3791Z" fill="#E6034B"/>
<path d="M60.0129 3.28848C60.0286 3.7424 59.6828 4.13371 59.2271 4.14936C58.7713 4.16502 58.3785 3.82066 58.3627 3.36675C58.3627 3.33544 58.3627 3.30414 58.3627 3.27283C58.347 2.81891 58.6928 2.4276 59.1485 2.41195C59.6043 2.3963 59.9972 2.74065 60.0129 3.19457C60.0129 3.22587 60.0129 3.25718 60.0129 3.28848Z" fill="#E6034B"/>
<path d="M29.6503 3.30436C29.6503 3.75827 29.2889 4.13393 28.8331 4.14958C28.3459 4.14958 28.0002 3.80523 28.0002 3.2887C27.9688 2.83478 28.2988 2.44348 28.7545 2.41217C28.7703 2.41217 28.8017 2.41217 28.8174 2.41217C29.3046 2.41217 29.6503 2.78783 29.6503 3.30436Z" fill="#E6034B"/>
</g>
<defs>
<clipPath id="clip0_421_23588">
<rect width="78.751" height="18.0002" fill="white"/>
</clipPath>
</defs>
</svg>
